<mxfile host="app.diagrams.net" agent="Mozilla/5.0 (Windows NT 10.0; Win64; x64) AppleWebKit/537.36 (KHTML, like Gecko) Chrome/140.0.0.0 Safari/537.36" version="28.2.3" pages="2">
  <diagram name="Trang-1" id="yWLVgoLS6yHWeBhQKYac">
    <mxGraphModel grid="1" page="1" gridSize="10" guides="1" tooltips="1" connect="1" arrows="1" fold="1" pageScale="1" pageWidth="827" pageHeight="1169" background="light-dark(#FFFFFF,#FFFFFF)" math="0" shadow="0">
      <root>
        <mxCell id="0" />
        <mxCell id="1" parent="0" />
        <mxCell id="_7zr7xu6uWKoW8F8tLmX-6" value="" style="ellipse;whiteSpace=wrap;html=1;" vertex="1" parent="1">
          <mxGeometry x="400" y="220" width="120" height="80" as="geometry" />
        </mxCell>
        <mxCell id="_7zr7xu6uWKoW8F8tLmX-7" value="Student" style="shape=umlActor;verticalLabelPosition=bottom;verticalAlign=top;html=1;outlineConnect=0;" vertex="1" parent="1">
          <mxGeometry x="170" y="160" width="30" height="60" as="geometry" />
        </mxCell>
        <mxCell id="_7zr7xu6uWKoW8F8tLmX-8" value="Billing System" style="shape=umlActor;verticalLabelPosition=bottom;verticalAlign=top;html=1;outlineConnect=0;" vertex="1" parent="1">
          <mxGeometry x="710" y="160" width="30" height="60" as="geometry" />
        </mxCell>
        <mxCell id="_7zr7xu6uWKoW8F8tLmX-10" value="Resgister for Courses&lt;div&gt;&lt;span style=&quot;white-space: pre;&quot;&gt;&#x9;&lt;/span&gt;&lt;/div&gt;" style="text;html=1;align=center;verticalAlign=middle;whiteSpace=wrap;rounded=0;" vertex="1" parent="1">
          <mxGeometry x="380" y="310" width="160" height="30" as="geometry" />
        </mxCell>
        <mxCell id="_7zr7xu6uWKoW8F8tLmX-13" value="" style="endArrow=classic;html=1;rounded=0;entryX=0;entryY=0.5;entryDx=0;entryDy=0;" edge="1" parent="1" source="_7zr7xu6uWKoW8F8tLmX-7" target="_7zr7xu6uWKoW8F8tLmX-6">
          <mxGeometry width="50" height="50" relative="1" as="geometry">
            <mxPoint x="230" y="260" as="sourcePoint" />
            <mxPoint x="280" y="210" as="targetPoint" />
          </mxGeometry>
        </mxCell>
        <mxCell id="_7zr7xu6uWKoW8F8tLmX-14" value="" style="endArrow=classic;html=1;rounded=0;" edge="1" parent="1" target="_7zr7xu6uWKoW8F8tLmX-8">
          <mxGeometry width="50" height="50" relative="1" as="geometry">
            <mxPoint x="520" y="274" as="sourcePoint" />
            <mxPoint x="690" y="169.99937773861552" as="targetPoint" />
            <Array as="points" />
          </mxGeometry>
        </mxCell>
        <mxCell id="_7zr7xu6uWKoW8F8tLmX-21" value="Professor" style="shape=umlActor;verticalLabelPosition=bottom;verticalAlign=top;html=1;outlineConnect=0;" vertex="1" parent="1">
          <mxGeometry x="170" y="420" width="30" height="60" as="geometry" />
        </mxCell>
        <mxCell id="_7zr7xu6uWKoW8F8tLmX-23" value="" style="ellipse;whiteSpace=wrap;html=1;" vertex="1" parent="1">
          <mxGeometry x="400" y="360" width="120" height="80" as="geometry" />
        </mxCell>
        <mxCell id="_7zr7xu6uWKoW8F8tLmX-24" value="Registrar" style="shape=umlActor;verticalLabelPosition=bottom;verticalAlign=top;html=1;outlineConnect=0;" vertex="1" parent="1">
          <mxGeometry x="170" y="660" width="30" height="60" as="geometry" />
        </mxCell>
        <mxCell id="_7zr7xu6uWKoW8F8tLmX-25" value="" style="ellipse;whiteSpace=wrap;html=1;" vertex="1" parent="1">
          <mxGeometry x="400" y="510" width="120" height="80" as="geometry" />
        </mxCell>
        <mxCell id="_7zr7xu6uWKoW8F8tLmX-26" value="" style="ellipse;whiteSpace=wrap;html=1;" vertex="1" parent="1">
          <mxGeometry x="400" y="650" width="120" height="80" as="geometry" />
        </mxCell>
        <mxCell id="_7zr7xu6uWKoW8F8tLmX-27" value="" style="ellipse;whiteSpace=wrap;html=1;" vertex="1" parent="1">
          <mxGeometry x="400" y="790" width="120" height="80" as="geometry" />
        </mxCell>
        <mxCell id="_7zr7xu6uWKoW8F8tLmX-28" value="" style="ellipse;whiteSpace=wrap;html=1;" vertex="1" parent="1">
          <mxGeometry x="680" y="650" width="120" height="80" as="geometry" />
        </mxCell>
        <mxCell id="_7zr7xu6uWKoW8F8tLmX-32" value="" style="endArrow=classic;html=1;rounded=0;exitX=1;exitY=1;exitDx=0;exitDy=0;exitPerimeter=0;" edge="1" parent="1" source="_7zr7xu6uWKoW8F8tLmX-21" target="_7zr7xu6uWKoW8F8tLmX-23">
          <mxGeometry width="50" height="50" relative="1" as="geometry">
            <mxPoint x="270" y="460" as="sourcePoint" />
            <mxPoint x="320" y="410" as="targetPoint" />
          </mxGeometry>
        </mxCell>
        <mxCell id="_7zr7xu6uWKoW8F8tLmX-33" value="" style="endArrow=classic;html=1;rounded=0;entryX=0;entryY=0.5;entryDx=0;entryDy=0;" edge="1" parent="1" source="_7zr7xu6uWKoW8F8tLmX-24" target="_7zr7xu6uWKoW8F8tLmX-25">
          <mxGeometry width="50" height="50" relative="1" as="geometry">
            <mxPoint x="250" y="640" as="sourcePoint" />
            <mxPoint x="300" y="590" as="targetPoint" />
          </mxGeometry>
        </mxCell>
        <mxCell id="_7zr7xu6uWKoW8F8tLmX-34" value="" style="endArrow=classic;html=1;rounded=0;entryX=0;entryY=0.5;entryDx=0;entryDy=0;" edge="1" parent="1" target="_7zr7xu6uWKoW8F8tLmX-26">
          <mxGeometry width="50" height="50" relative="1" as="geometry">
            <mxPoint x="200" y="690" as="sourcePoint" />
            <mxPoint x="300" y="680" as="targetPoint" />
          </mxGeometry>
        </mxCell>
        <mxCell id="_7zr7xu6uWKoW8F8tLmX-35" value="" style="endArrow=classic;html=1;rounded=0;entryX=0;entryY=0.5;entryDx=0;entryDy=0;" edge="1" parent="1" source="_7zr7xu6uWKoW8F8tLmX-24" target="_7zr7xu6uWKoW8F8tLmX-27">
          <mxGeometry width="50" height="50" relative="1" as="geometry">
            <mxPoint x="270" y="820" as="sourcePoint" />
            <mxPoint x="320" y="770" as="targetPoint" />
          </mxGeometry>
        </mxCell>
        <mxCell id="_7zr7xu6uWKoW8F8tLmX-39" value="&amp;lt;&amp;lt;uses&amp;gt;&amp;gt;" style="endArrow=block;endSize=16;endFill=0;html=1;rounded=0;strokeColor=default;align=center;verticalAlign=middle;fontFamily=Helvetica;fontSize=11;fontColor=default;labelBackgroundColor=default;" edge="1" parent="1" source="_7zr7xu6uWKoW8F8tLmX-26" target="_7zr7xu6uWKoW8F8tLmX-28">
          <mxGeometry y="10" width="160" relative="1" as="geometry">
            <mxPoint x="520" y="690" as="sourcePoint" />
            <mxPoint x="680" y="690" as="targetPoint" />
            <mxPoint as="offset" />
          </mxGeometry>
        </mxCell>
        <mxCell id="_7zr7xu6uWKoW8F8tLmX-40" value="&amp;lt;&amp;lt;uses&amp;gt;&amp;gt;" style="endArrow=block;endSize=16;endFill=0;html=1;rounded=0;strokeColor=default;align=center;verticalAlign=middle;fontFamily=Helvetica;fontSize=11;fontColor=default;labelBackgroundColor=default;" edge="1" parent="1" source="_7zr7xu6uWKoW8F8tLmX-25" target="_7zr7xu6uWKoW8F8tLmX-28">
          <mxGeometry x="0.2609" y="13" width="160" relative="1" as="geometry">
            <mxPoint x="510" y="600" as="sourcePoint" />
            <mxPoint x="670" y="600" as="targetPoint" />
            <mxPoint x="1" as="offset" />
          </mxGeometry>
        </mxCell>
        <mxCell id="_7zr7xu6uWKoW8F8tLmX-41" value="&amp;lt;&amp;lt;uses&amp;gt;&amp;gt;" style="endArrow=block;endSize=16;endFill=0;html=1;rounded=0;strokeColor=default;align=center;verticalAlign=middle;fontFamily=Helvetica;fontSize=11;fontColor=default;labelBackgroundColor=default;exitX=0.985;exitY=0.358;exitDx=0;exitDy=0;exitPerimeter=0;" edge="1" parent="1" source="_7zr7xu6uWKoW8F8tLmX-27" target="_7zr7xu6uWKoW8F8tLmX-28">
          <mxGeometry x="-0.2368" y="11" width="160" relative="1" as="geometry">
            <mxPoint x="520" y="790" as="sourcePoint" />
            <mxPoint x="680" y="790" as="targetPoint" />
            <mxPoint as="offset" />
          </mxGeometry>
        </mxCell>
        <mxCell id="_7zr7xu6uWKoW8F8tLmX-43" value="&lt;span style=&quot;white-space: pre;&quot;&gt;&#x9;&lt;/span&gt;Maintain Cumiculum" style="text;html=1;align=center;verticalAlign=middle;whiteSpace=wrap;rounded=0;fontFamily=Helvetica;fontSize=11;fontColor=default;labelBackgroundColor=default;" vertex="1" parent="1">
          <mxGeometry x="380" y="585" width="140" height="30" as="geometry" />
        </mxCell>
        <mxCell id="_7zr7xu6uWKoW8F8tLmX-44" value="Select Courses to Teach&lt;div&gt;&lt;br&gt;&lt;/div&gt;" style="text;html=1;align=center;verticalAlign=middle;whiteSpace=wrap;rounded=0;fontFamily=Helvetica;fontSize=11;fontColor=default;labelBackgroundColor=default;" vertex="1" parent="1">
          <mxGeometry x="370" y="450" width="180" height="30" as="geometry" />
        </mxCell>
        <mxCell id="_7zr7xu6uWKoW8F8tLmX-46" value="&lt;br&gt;&lt;div&gt;Maintain Student Information&lt;/div&gt;" style="text;html=1;align=center;verticalAlign=middle;whiteSpace=wrap;rounded=0;fontFamily=Helvetica;fontSize=11;fontColor=default;labelBackgroundColor=default;" vertex="1" parent="1">
          <mxGeometry x="385" y="730" width="150" height="30" as="geometry" />
        </mxCell>
        <mxCell id="_7zr7xu6uWKoW8F8tLmX-47" value="Maintain Professor Information" style="text;html=1;align=center;verticalAlign=middle;whiteSpace=wrap;rounded=0;fontFamily=Helvetica;fontSize=11;fontColor=default;labelBackgroundColor=default;" vertex="1" parent="1">
          <mxGeometry x="375" y="870" width="170" height="30" as="geometry" />
        </mxCell>
        <mxCell id="_7zr7xu6uWKoW8F8tLmX-48" value="Registrar Validation" style="text;html=1;align=center;verticalAlign=middle;whiteSpace=wrap;rounded=0;fontFamily=Helvetica;fontSize=11;fontColor=default;labelBackgroundColor=default;" vertex="1" parent="1">
          <mxGeometry x="690" y="740" width="120" height="30" as="geometry" />
        </mxCell>
      </root>
    </mxGraphModel>
  </diagram>
  <diagram id="3mmVFpEknyJykN40VUNU" name="Trang-2">
    <mxGraphModel grid="1" page="1" gridSize="10" guides="1" tooltips="1" connect="1" arrows="1" fold="1" pageScale="1" pageWidth="827" pageHeight="1169" math="0" shadow="0">
      <root>
        <mxCell id="0" />
        <mxCell id="1" parent="0" />
        <mxCell id="ngaOvjmUKHd-Q2rvdU4m-10" value="Student" style="shape=umlActor;" vertex="1" parent="1">
          <mxGeometry x="180" y="190" width="40" height="80" as="geometry" />
        </mxCell>
        <mxCell id="ngaOvjmUKHd-Q2rvdU4m-11" value="Register for Courses" style="ellipse;whiteSpace=wrap;html=1;" vertex="1" parent="1">
          <mxGeometry x="340" y="190" width="160" height="60" as="geometry" />
        </mxCell>
        <mxCell id="ngaOvjmUKHd-Q2rvdU4m-12" value="View Registered Courses" style="ellipse;whiteSpace=wrap;html=1;" vertex="1" parent="1">
          <mxGeometry x="340" y="290" width="160" height="60" as="geometry" />
        </mxCell>
        <mxCell id="ngaOvjmUKHd-Q2rvdU4m-13" style="endArrow=none;html=1;" edge="1" parent="1" source="ngaOvjmUKHd-Q2rvdU4m-10" target="ngaOvjmUKHd-Q2rvdU4m-11">
          <mxGeometry relative="1" as="geometry" />
        </mxCell>
        <mxCell id="ngaOvjmUKHd-Q2rvdU4m-14" style="endArrow=none;html=1;" edge="1" parent="1" source="ngaOvjmUKHd-Q2rvdU4m-10" target="ngaOvjmUKHd-Q2rvdU4m-12">
          <mxGeometry relative="1" as="geometry" />
        </mxCell>
        <mxCell id="ngaOvjmUKHd-Q2rvdU4m-15" value="«include»" style="endArrow=open;endSize=12;dashed=1;html=1;" edge="1" parent="1" source="ngaOvjmUKHd-Q2rvdU4m-11" target="ngaOvjmUKHd-Q2rvdU4m-12">
          <mxGeometry relative="1" as="geometry" />
        </mxCell>
        <mxCell id="ngaOvjmUKHd-Q2rvdU4m-16" value="Registrar" style="shape=umlActor;" vertex="1" parent="1">
          <mxGeometry x="180" y="410" width="40" height="80" as="geometry" />
        </mxCell>
        <mxCell id="ngaOvjmUKHd-Q2rvdU4m-17" value="Generate Reports" style="ellipse;whiteSpace=wrap;html=1;" vertex="1" parent="1">
          <mxGeometry x="340" y="430" width="160" height="60" as="geometry" />
        </mxCell>
        <mxCell id="ngaOvjmUKHd-Q2rvdU4m-18" style="endArrow=none;html=1;" edge="1" parent="1" source="ngaOvjmUKHd-Q2rvdU4m-16" target="ngaOvjmUKHd-Q2rvdU4m-17">
          <mxGeometry relative="1" as="geometry" />
        </mxCell>
        <mxCell id="ngaOvjmUKHd-Q2rvdU4m-19" value="&lt;font style=&quot;font-size: 18px;&quot;&gt;e) Đề xuất cải tiến hoặc thêm use case&lt;/font&gt;" style="text;html=1;align=center;verticalAlign=middle;resizable=0;points=[];autosize=1;strokeColor=none;fillColor=none;" vertex="1" parent="1">
          <mxGeometry x="220" y="75" width="330" height="40" as="geometry" />
        </mxCell>
      </root>
    </mxGraphModel>
  </diagram>
</mxfile>
